<svg xmlns="http://www.w3.org/2000/svg" width="512" height="512" viewBox="0 0 359 359" role="img" aria-label="Buwang motorcycle logo">
  <defs>
    <linearGradient id="logoGradient" x1="105" y1="96" x2="260" y2="267" gradientUnits="userSpaceOnUse">
      <stop offset="0" stop-color="#00a3ff"/>
      <stop offset="0.5" stop-color="#0078d4"/>
      <stop offset="1" stop-color="#005792"/>
    </linearGradient>
  </defs>
  <path d="M 255.00 253.50 L 236.00 253.50 L 229.00 251.50 L 219.00 246.50 L 207.50 237.00 L 201.50 229.00 L 197.50 221.00 L 194.50 210.00 L 194.50 195.00 L 197.50 184.00 L 200.50 178.00 L 204.50 172.00 L 215.50 161.00 L 213.50 155.00 L 211.00 152.50 L 207.00 154.50 L 193.50 168.00 L 163.50 210.00 L 143.50 234.00 L 133.00 243.50 L 120.00 249.50 L 100.00 250.50 L 87.00 245.50 L 78.00 239.50 L 69.50 229.00 L 64.50 218.00 L 63.50 213.00 L 64.50 195.00 L 67.50 187.00 L 73.50 178.00 L 82.00 170.50 L 93.00 164.50 L 101.00 162.50 L 115.00 162.50 L 123.00 164.50 L 131.00 168.50 L 143.50 179.00 L 143.50 181.00 L 140.00 184.50 L 127.00 191.50 L 121.00 186.50 L 115.00 183.50 L 101.00 183.50 L 95.00 186.50 L 88.50 193.00 L 84.50 203.00 L 84.50 210.00 L 86.50 217.00 L 95.00 226.50 L 101.00 229.50 L 107.00 229.50 L 108.00 230.50 L 109.00 229.50 L 115.00 229.50 L 122.00 226.50 L 123.50 225.00 L 122.00 223.50 L 111.00 220.50 L 102.50 213.00 L 97.50 204.00 L 96.50 198.00 L 98.00 197.50 L 100.00 199.50 L 108.00 202.50 L 123.00 202.50 L 134.00 198.50 L 141.00 194.50 L 158.50 178.00 L 172.50 158.00 L 191.00 138.50 L 203.00 130.50 L 217.00 124.50 L 219.50 122.00 L 215.00 116.50 L 209.00 113.50 L 194.00 113.50 L 186.00 110.50 L 181.50 105.00 L 179.50 99.00 L 181.00 97.50 L 207.00 97.50 L 223.00 100.50 L 240.00 108.50 L 244.00 111.50 L 254.50 122.00 L 259.50 130.00 L 262.50 139.00 L 262.00 143.50 L 255.00 141.50 L 233.00 142.50 L 230.50 146.00 L 233.50 152.00 L 235.00 153.50 L 237.00 152.50 L 256.00 152.50 L 261.00 153.50 L 272.00 158.50 L 279.00 163.50 L 287.50 172.00 L 294.50 185.00 L 296.50 192.00 L 296.50 197.00 L 297.50 198.00 L 296.50 214.00 L 292.50 225.00 L 287.50 233.00 L 273.00 246.50 L 265.00 250.50 L 255.00 253.50 Z
M 249.50 232.00 L 254.00 231.50 L 263.00 227.50 L 270.50 220.00 L 273.50 215.00 L 275.50 208.00 L 275.50 197.00 L 271.50 187.00 L 263.00 177.50 L 254.00 173.50 L 245.00 172.50 L 243.50 175.00 L 246.50 180.00 L 248.50 187.00 L 257.00 193.50 L 259.50 198.00 L 260.50 204.00 L 258.50 210.00 L 251.00 216.50 L 241.00 216.50 L 236.00 213.50 L 231.50 207.00 L 231.50 197.00 L 226.50 185.00 L 224.00 182.50 L 217.50 192.00 L 215.50 200.00 L 215.50 206.00 L 220.50 219.00 L 226.00 225.50 L 241.00 232.50 L 249.50 232.00 Z
M 151.00 173.50 L 149.00 173.50 L 143.00 166.50 L 134.00 160.50 L 73.00 134.50 L 68.50 131.00 L 66.50 127.00 L 123.00 126.50 L 129.00 133.50 L 140.00 140.50 L 153.00 141.50 L 154.00 142.50 L 174.00 142.50 L 173.50 145.00 L 163.50 156.00 L 151.00 173.50 Z" fill="url(#logoGradient)" fill-rule="evenodd"/>
</svg>
